<svg xmlns="http://www.w3.org/2000/svg" width="647.2" height="751"><defs><clipPath id="a"><path d="M0 790.9h900V0H0z"/></clipPath></defs><g clip-path="url(#a)" transform="matrix(1.33333 0 0 -1.33333 -278 902.6)"><path fill="#2f2d2e" fill-rule="evenodd" d="M649.8 677H252.6c-32.2 0-44-12-44-44.2V244.2c0-3.7 0-7 .4-10.2.7-7 .9-13.8 7.4-21.6.7-.8 7.3-5.7 7.3-5.7 3.6-1.8 6-3 10.1-4.7l195.6-82c10.2-4.6 14.4-6.4 21.8-6.3 7.4-.1 11.7 1.7 21.8 6.3l195.6 82c4 1.6 6.5 3 10.1 4.7 0 0 6.7 5 7.3 5.7 6.6 7.8 6.7 14.6 7.4 21.6.4 3.1.5 6.5.5 10.2v388.6c0 32.3-11.9 44.1-44 44.1"/><path fill="#fff" d="M623.2 286.2v-1l-.1-1-.2-.8-.3-.9-.2-.8-.2-.9-.4-.8-.4-.7-.3-.8-.5-.8-.4-.7-.5-.7-.5-.7-.5-.6-.6-.7-.6-.5-.7-.6-.6-.6-.7-.5-.7-.4-.8-.6-.8-.4-.8-.4-.8-.4-.9-.4-.9-.4-.9-.2-.8-.3-.8-.3-1-.1-.7-.2-.8-.2-1-.2h-.8l-.8-.2h-1l-1-.1-.8-.1h-5.6l-1 .2h-.8l-1 .1-.9.2-.9.1-.9.2-.9.2-.9.1-.8.2-1 .3-.7.2-1 .2-.8.3-.8.4-1 .2-.7.3-1 .4-.7.3-.8.4-.8.4-.8.4-.8.4-.7.5-.9.4-.7.5-.7.4-.7.6-.7.5-.7.5-.7.6-.7.5-.7.6.6.8.6.6.5.7.6.7.6.6.5.8.6.7.6.6.6.7.5.7.7.7.5.7.5.6.7.7.5.7.6.7.6.7.7-.5.8-.6.7-.5.8-.6.7-.4.8-.5.7-.5.8-.4.7-.4.8-.4.8-.3.8-.4.8-.2.9-.4.8-.3 1-.2.7-.3 1-.2.8-.2 1-.1.9-.1.9-.2h.9l1-.1h2.9l1 .3.7.1.8.2.7.3.7.3.7.6.5.6.4.7.2.8.1 1v1.1l-.4 1-.5.6-.6.6-.7.5-.7.3-.8.4-1 .4-1 .4-.6.2-.7.2-.8.2-.8.2-1 .3-.8.2-1 .2-.9.2-1 .3-.9.2-.9.2-.9.2-.9.3-.8.2-.9.2-.8.3-.8.3-.8.2-1 .4-.8.4-1 .3-.8.4-.8.4-1 .5-.6.4-.8.5-.7.5-.8.4-.6.6-.6.6-.6.6-.6.7-.5.6-.5.6-.4.7-.4.8-.4.7-.3.7-.2.8-.3.7-.2 1-.2.7v1l-.1.8-.1 1v3l.1.8.1.9.2.8.2.8.3.8.1.8.4.8.4.8.3.8.5.8.4.8.5.7.6.8.6.7.6.6.6.7.8.6.6.5.7.5.7.6.7.4.8.5.8.3.8.5.8.3 1 .3.8.4.8.2.7.2.8.2.9.2.8.1.8.2 1 .1.8.1h1l.8.2h3.9l1-.1 1-.1h1.8l.9-.3h1l.9-.2.8-.2.9-.2.8-.2.9-.2.8-.2.8-.3.9-.2.8-.3.8-.3.9-.4.8-.3.8-.4.9-.4.7-.4.8-.4.8-.5.7-.4.8-.6.7-.4.7-.5.7-.6.7-.5-.5-.7-.4-.8-.6-.7-.5-.7-.5-.8-.5-.7-.5-.7-.6-.8-.4-.7-.5-.7-.6-.7-.4-.7-.6-.8-.5-.7-.5-.8-.5-.7-.5-.7-.7.5-.8.5-.7.4-.8.6-.8.3-.7.5-.8.3-.7.4-.8.4-.7.3-.8.3-.7.3-1 .3-.9.3-.9.3-.9.1-.9.2-.9.2h-.9l-.9.2h-2.7l-1-.1-.9-.2-.8-.2-.7-.3-.6-.4-.8-.7-.6-.8-.3-.8-.1-1v-1.3l.5-1 .4-.5.6-.6.8-.5.7-.4.9-.4 1-.3 1-.4.8-.2.7-.2.8-.2.8-.3.9-.2 1-.2 1-.3 1-.3 1-.2.8-.2 1-.3.9-.2.9-.2.9-.3.8-.3.9-.2.8-.3.8-.3 1-.3.8-.5 1-.3.8-.5.8-.4.8-.5.7-.4.8-.6.7-.4.7-.7.7-.6.6-.7.6-.6.6-.7.5-.8.5-.8.4-.8.4-.7.2-.8.3-.8.2-.8.2-1 .1-.8.1-.9.1-1v-2.2zm-62.6-18h-51.2v65.3h51.8v-14.8h-34.7V308h31.1v-13.9h-31.1V283h35.1v-14.8zm-65.2 0H479V307l-.4-.8-.5-.8-.4-.7-.6-.7-.4-.8-.6-.8-.4-.7-.4-.8-.6-.7-.4-.7-.6-.7-.4-.8-.5-.8-.5-.7-.4-.8-.6-.7-.4-.7-.6-.8-.4-.7-.5-.8-.5-.8-.4-.7-.6-.7-.4-.8-.5-.7-.5-.8-.5-.7-.5-.8-.4-.7-.6-.7-.4-.8-.5-.7-.5-.8-.5-.8-.5-.7h-.3l-.6.8-.4.7-.5.8-.5.8-.5.8-.5.7-.5.8-.5.7-.5.8-.4.7-.6.9-.4.7-.6.8-.4.7-.5.8-.5.7-.5.8-.6.7-.4.9-.5.7-.5.8-.5.7-.5.8-.5.7-.4.8-.6.8-.4.8-.6.7-.4.8-.5.7-.5.8-.5.7-.5.8-.5.8v-38.6h-17v65.3h18.3l.5-.7.4-.8.6-.7.4-.8.5-.8.4-.8.4-.7.6-.8.4-.7.5-.7.4-.8.5-.7.5-.8.4-.8.5-.8.4-.7.6-.7.4-.8.5-.7.4-.8.5-.7.5-.8.4-.8.5-.8.4-.7.5-.7.5-.8.5-.7.4-.8.5-.7.4-.8.5-.8.5-.8.4-.7.5.7.4.8.6.8.4.8.5.7.4.8.5.7.5.8.4.7.5.7.5.8.5.8.4.8.4.7.6.8.4.7.5.8.4.7.5.7.5.8.4.8.5.8.4.7.6.8.4.7.5.7.4.8.6.7.4.8.4.8.5.8.5.7.5.8.4.7h18.3v-65.3zm-103.5 27l-.3.8-.4.8-.3.9-.3.8-.3.8-.4.9-.3.8-.3.8-.4.8-.2.8-.4 1-.3.7-.3.8-.4.8-.3.8-.3 1-.4.7-.2.9-.4.8-.3.9-.3.8-.4.8-.3-.8-.3-.8-.4-1-.3-.7-.3-.9-.3-.8-.4-.9-.4-.8-.2-.8-.4-.8-.3-.8-.3-.9-.4-.8-.3-.8-.3-.8-.3-.8-.4-1-.4-.7-.2-.8-.4-.9-.3-.8-.3-.9-.4-.8h15.2zm28-27h-17.5l-.4.9-.2.8-.4.8-.3.9-.3.8-.4.8-.3.8-.3.8-.3.8-.4.8-.3.8-.3 1-.4.7-.3.8-.3.8h-25.7l-.3-.8-.3-.8-.3-.8-.4-.9-.2-.8-.4-.8-.3-.8-.3-.8-.4-.8-.3-.8-.3-.8-.4-1-.3-.7-.3-.8-.3-.9h-18.1l.4.9.3.8.4.8.4.9.2.8.4.8.3.8.4.8.4.8.3.9.4.8.3.8.3.8.4.8.3.8.4 1 .3.7.4.8.3.8.4.9.3.8.3.9.4.8.3.8.4.8.3.8.4.8.4.9.2.8.4.8.3.8.4.8.4.8.3 1 .4.7.3.8.3.8.4.8.3.9.4.8.3.9.4.8.3.8.4.8.3.8.3.8.4.9.3.8.4.8.3.8.4.8.4.8.2 1 .4.7.3.8.4.8.4.8.3.8.4 1 .3.7.3.9.4.8.3.8.4.8.3.9.4.8.3.8.4.8.3.8.3.8.4.9.3.8.4.8.4.8.3.8.4.8.2 1 .4.7.3.8.4.9h16.6l.3-.9.3-.8.4-.8.3-.9.3-.8.4-.8.3-.8.4-.8.3-.8.4-.9.4-.8.3-.8.3-.8.3-.8.4-.8.4-1 .3-.7.4-.8.3-.8.4-.9.2-.8.4-.9.4-.8.3-.8.4-.8.3-.8.4-.8.3-.9.3-.8.4-.8.3-.8.4-.8.3-.8.4-1 .4-.7.3-.8.3-.8.3-.8.4-.8.3-.9.4-.8.4-.9.3-.8.4-.8.2-.8.4-.8.4-.9.3-.8.4-.8.3-.8.4-.8.3-.8.3-1 .4-.7.3-.8.4-.8.3-.8.4-.8.4-1 .3-.7.3-.9.3-.8.4-.8.3-.8.4-.9.4-.8.3-.8.4-.8.2-.8.4-.8.4-.9.3-.8.4-.8.3-.8.4-.8.3-.8.3-1 .4-.7.3-.8.4-.9zm-78.2 8.4l-.7-.6-.6-.4-.8-.5-.7-.5-.7-.5-.7-.5-.7-.4-.8-.5-.8-.4-.8-.5-.8-.3-.8-.5-1-.3-.7-.4-1-.3-.7-.4-.8-.3-.8-.2-.8-.3-1-.3-.7-.3-1-.1-.7-.2-1-.2-.8-.2h-.9l-1-.1-.9-.1-1-.1-.8-.1-1-.1h-4.8l-1 .2h-.8l-1 .2h-.8l-1 .2-.8.2-.8.2-.9.2-.8.2-.9.2-.8.3-.8.3-.8.3-.9.4-.8.3-.8.4-.8.3-.8.5-.7.4-.8.5-.7.4-.8.5-.7.5-.7.6-.7.5-.6.5-.6.6-.7.6-.6.5-.6.7-.6.6-.6.6-.5.7-.6.7-.4.7-.5.7-.5.7-.4.7-.5.8-.4.8-.4.8-.3.8-.4.8-.3.8-.3.7-.4.8-.2.8-.2.8-.2 1-.3.7-.1 1-.1.7-.2 1-.1.7v1l-.2.8v5.8l.1.9.1 1 .2.8v1l.2.7.3 1 .2.8.3.8.2 1 .3.7.4 1 .3.7.4.8.3.9.4.8.4.8.5.7.4.7.5.7.4.7.5.8.6.7.5.7.6.6.6.6.5.7.6.6.7.6.6.6.7.6.6.5.7.6.8.4.7.6.7.4.7.5.8.4.8.4.8.5.8.4.8.3 1 .5.6.2 1 .3.7.4.8.1.8.3 1 .2.7.3 1 .1.8.1.9.2h.9l.9.2h.9l.9.2h3.8l1-.1 1-.1h.9l.9-.1 1-.2h.7l1-.3.8-.1.8-.2.8-.2.8-.2.8-.2.8-.2.8-.3.8-.3.8-.3.8-.4.8-.3.8-.5.8-.3.7-.5.8-.4.7-.5.8-.4.7-.6.7-.4.8-.6.7-.5.7-.6.7-.6-.5-.7-.7-.6-.5-.7-.6-.7-.6-.8-.5-.6-.6-.7-.6-.7-.5-.6-.6-.8-.6-.7-.6-.7-.5-.6-.6-.7-.6-.8-.5-.7-.6-.6-.6-.7-.7.5-.7.6-.7.5-.7.5-.7.5-.8.4-.7.5-.8.4-.7.4-.7.3-.7.3-.8.3-.8.2-.8.2-1 .2-.8.2h-.9l-1 .2H312l-.7-.1-1-.2-.7-.2-.8-.3-.8-.2-.8-.4-.8-.3-.8-.5-.7-.4-.7-.5-.6-.5-.6-.6-.7-.5-.5-.6-.6-.7-.6-.7-.4-.6-.5-.7-.4-.8-.4-.7-.4-.8-.3-.9-.3-.8-.3-.9-.2-.8-.2-.9-.1-1-.1-.8-.1-1V299l.2-.8v-.9l.2-.8.2-.8.2-.8.3-.8.2-.7.4-1 .3-.7.5-.9.4-.7.5-.7.5-.7.6-.6.6-.7.5-.6.6-.5.8-.6.7-.5.7-.4.7-.5.8-.4.8-.3.8-.4.9-.2.9-.3.9-.2.9-.2h.9l1-.1h3l1 .1.9.1.9.2.8.2 1 .2.7.2.8.4.8.3.8.4.6.4.7.4v8.1h-13.1v13.1h29.7V277zM313 481.2h38.7V511H313v61h40.2v30h-73V386h73.6v30H313zm277-6.5v-48.8c0-8.6-4-12.6-12.2-12.6h-6.2c-8.5 0-12.5 4-12.5 12.6v136.4c0 8.6 4 12.6 12.5 12.6h5.6c8.3 0 12.3-4 12.3-12.6V520h32.2v44.1c0 26.9-12.9 39.8-39.6 39.8h-16c-26.7 0-39.9-13.2-39.9-40V424.3c0-26.8 13.2-40.1 40-40.1h16.2c26.7 0 40 13.3 40 40v50.4zm-114-88.6h32.8v216H476zm-47.7 120c0-8.6-4-12.6-12.3-12.6h-13.5V573H416c8.3 0 12.3-4 12.3-12.7zm-7 96h-51.6V386h32.8v78.4h18.8c26.7 0 39.9 13.3 39.9 40.1V562c0 26.8-13.2 40-40 40"/><path fill="#fff" fill-rule="evenodd" d="M357.6 190.9h188.1l-96-31.7z"/></g></svg>