<svg xmlns="http://www.w3.org/2000/svg" viewBox="0 0 1000 1000">
<g>
	<g>
		<path fill="none" d="M644.7,214.7c48.1,0,90,2.9,125.7,9.5c1.7,0.3,3.5,0.6,5.2,0.9c-1.7-0.3-3.4-0.6-5.2-1
			C734.7,217.6,692.8,214.7,644.7,214.7z"/>
	</g>
	<g>
		<path fill="#009CDE" d="M920.9,320.9c-13.5-25.8-33.1-46.8-58.8-63c-21.6-13.4-46.2-23.5-74.5-30.3c0.7,8.1,1.4,16.6,1.4,25.4
			c0,0,0,0,0,0.1c0,0,0,0,0,0.1c0,87.6-36.6,158.4-109.3,212C607.1,518.9,505.3,546,374.8,546h-72l-93.2,404h190.6l55.3-241h72.1
			c130.4,0,231.9-26.4,304.6-80.1c72.6-53.7,108.9-124.1,108.9-211.7C941.1,378.7,934.4,346.7,920.9,320.9z"/>
	</g>
	<g>
		<path fill="#002F86" d="M644.7,216c48.1,0,90,2.8,125.7,9.4c1.7,0.3,3.5,0.6,5.2,0.9c4.3,0.8,8.5,1.5,12.6,2.5
			c-2.4-27.4-8.8-51.2-19.2-71.1c-13.5-25.8-33.1-46.9-58.8-63c-26-16.1-56.9-27.3-92.6-33.9C581.9,54.1,540,51,491.9,51H227.5
			L57.9,786h190.6l55.3-239h0.2l76.5-331H644.7z"/>
	</g>
	<g>
		<path fill="#012069" d="M680.4,465.7C753,412,789.3,340.9,789.3,253.3c0-8.8-0.4-17.4-1.1-25.5c0,0,0-0.1,0-0.1c0,0,0,0.1,0,0.1
			c-4.1-1-8.4-1.8-12.6-2.6c-1.7-0.3-3.4,0-5.2-0.3c-35.7-6.6-77.7-8.9-125.7-8.9H380.3l-76.5,331h72
			C506.3,547,607.8,519.4,680.4,465.7z"/>
		<path fill="#012069" d="M375.8,547h-72.6l0.1-0.6L379.9,215h264.7c51.2,0,92.4,3,125.8,9.2c0.9,0.2,1.7,0.2,2.6,0.3
			c0.8,0.1,1.9,0.1,2.7,0.3c3.6,0.7,7.1,1.5,12.1,2.5v0l0.8,0.1l0,0.4c0.7,8.2,1,16.8,1,25.5c0,87.6-36.8,159.1-109.1,212.6
			l-0.3-0.4l0.3,0.4C607.9,519.7,505.3,547,375.8,547z M304.5,546h71.3c129.2,0,231.6-27.2,304.3-80.9
			c72.1-53.3,108.7-124.6,108.7-211.8c0-8.5-0.3-16.9-1-25c-4.3-1-8.6-1.9-12.3-2.6c-0.8-0.1-1.6-0.2-2.5-0.3
			c-0.9-0.1-1.8-0.1-2.7-0.3C737,219,695.9,216,644.7,216h-264L304.5,546z"/>
	</g>
	<g>
		<path fill="#0F3572" d="M681.1,465.2c72.6-53.7,108.9-124.4,108.9-212c0,0,0,0,0-0.1C790,340.6,753.7,411.5,681.1,465.2z"/>
	</g>
	<g>
		<path fill="#0F3572" d="M788.3,227.8c0,0,0-0.1,0-0.1c-4.1-1-8.3-1.7-12.6-2.5C779.9,226,784.1,226.8,788.3,227.8z"/>
	</g>
</g>
</svg>
