<svg xmlns="http://www.w3.org/2000/svg" viewBox="0 0 1024.2 1024.1"><linearGradient id="a" gradientUnits="userSpaceOnUse" x1="512.835" y1="655.54" x2="512.835" y2="368.38"><stop offset="0" stop-color="#096fd2"/><stop offset="1" stop-color="#0b7fdd"/></linearGradient><path fill="url(#a)" d="M411.8 368.4l-38 92.1h279.1l-38-92.1L898.4 512 614.9 655.5l38-92.1H373.8l37.7 92.1L127.3 512z"/><linearGradient id="b" gradientUnits="userSpaceOnUse" x1="512.1" y1="1024.08" x2="512.1"><stop offset="0" stop-color="#0564c8"/><stop offset="1" stop-color="#0e8ee9"/></linearGradient><path fill="url(#b)" d="M964.2 1024.1H60c-33 0-60-27-60-60V60C0 27 27 0 60 0h904.2c33 0 60 27 60 60v904.1c0 33-27 60-60 60zM508.2 90C277.6 92 91.7 281.2 90 512c-1.7 235 186.9 421.8 422 422 231.1.2 418-191.9 422-422 4.1-237.7-188-424.1-425.8-422z"/></svg>