<svg viewBox="15 15 110 110" xmlns="http://www.w3.org/2000/svg"><defs><clipPath id="a"><path d="M64 16a48 48 0 1 1-48 48 48 48 0 0 1 48-48zM46 64a18 18 0 1 0 18-18 18 18 0 0 0-18 18z" fill="none"/></clipPath></defs><g data-name="13 Support Service"><path d="M64 16a48 48 0 1 1-48 48 48 48 0 0 1 48-48zM46 64a18 18 0 1 0 18-18 18 18 0 0 0-18 18z" fill="#4d91bb"/><g clip-path="url(#a)"><path d="M65.52 51.17L64 46.35 48.59 34.24l16.93 16.93zm-2.93 25.56L64 81.65l15.52 12.01-16.93-16.93zm14.24-11.21L81.65 64l12.11-15.41-16.93 16.93zm-25.56-2.93L46.35 64 34.34 79.52l16.93-16.93z" fill="#2175aa"/></g><path d="M67.51 46.35a18 18 0 0 1 14.14 14.14l22.62-22.62a48.12 48.12 0 0 0-14.14-14.14zm9.22 30.38a17.91 17.91 0 0 1-9.22 4.92l22.62 22.62a48.12 48.12 0 0 0 14.14-14.14L81.65 67.51a17.91 17.91 0 0 1-4.92 9.22zm-16.24 4.92a18 18 0 0 1-14.14-14.14L23.73 90.13a48.12 48.12 0 0 0 14.14 14.14zM23.73 37.87l22.62 22.62a18 18 0 0 1 14.14-14.14L37.87 23.73a48.12 48.12 0 0 0-14.14 14.14z" fill="#87dbec"/></g></svg>