<svg width="190" height="56" xmlns="http://www.w3.org/2000/svg"><path d="M54.503 27.601c.029-.2.058-.402.089-.605 1.54 0 6.76-.005 7.69-.004-.705 4.287-4.125 21.286 1.132 21.286 6.117 0 9.237-21.28 9.237-21.28H79.243c-.36 2.96-3.246 22.24-1.14 22.24 1.26 0 2.831-1.868 4.38-4.387l1.53-17.854 8.07-.004-.342 4.915s3.143-5.955 10.844-5.955c3.13 0 5.804 1.624 6.487 5.353 1.038-1.513 4.282-5.355 10.468-5.355 3.634 0 6.656 2.137 6.656 7.326 0 2.408-.935 7.271-.935 7.271-.466 3.525-.556 4.871.516 4.871.587 0 2.336-1.821 4.309-4.135-.007-.239-.013-.48-.017-.727-.32-19.308 7.53-39.7 7.53-39.7h6.717s-5.638 16.564-7.292 29.736c0 0 3.027-4.64 10.728-4.64 3.635 0 6.656 2.191 6.656 7.324 0 6.015-4.004 14.086-9.13 18.517-4.627 4-13.027 7.355-14.859-6.221-2.143 2.873-4.109 5.424-4.785 6.214-1.579 1.841-3.96 3.53-6.232 3.533-3.249.007-2.976-4.085-1.564-14.77l.083-.71c.474-4.814.317-7.997-1.487-7.997-2.32 0-6.607 2.674-7.57 7.968-.537 4.788-1.553 9.213-2.396 14.408h-7.392c1.502-11.773 3.695-22.375.404-22.375-2.51 0-7.32 3.13-7.736 9.32L90.57 54.22h-8.891l.143-1.667c-1.492 1.38-3.384 2.467-5.208 2.47-2.043.005-3.934-1.61-4.707-5.467a13.037 13.037 0 01-1.699 1.785c-2.177 1.913-5.512 3.667-8.64 3.534-3.67-.155-6.951-2.555-7.824-10.602-1.58 2.892-3.627 5.564-5.895 7.525-5.126 4.431-16.499 8.072-16.82-11.238-.057-3.557.162-7.134.558-10.604H24.74c-2.124 13.408-6.348 24.265-6.348 24.265h-8.33s12.335-43.731 4.326-43.731c-8.01 0-10.573 11.553-10.573 11.553s-3.392-.8-3.815-.903C.368 15.242 4.228 7.738 9.101 3.525c5.125-4.432 16.5-8.072 16.82 11.236a78.077 78.077 0 01-.236 7.28H32.8c2.229-11.73 5.76-20.695 5.76-20.695h8.33s-12.334 43.486-4.325 43.486c7.643 0 11.02-12.622 11.938-17.23zm116.613 24.952c-5.23 3.322-15.258 7.054-15.577-12.103-.32-19.308 7.529-39.7 7.529-39.7h6.718s-12.066 47.5-4.057 47.528c.409.001 1.567-.524 3.005-1.27-.399-1.813-.643-3.981-.69-6.558-.153-8.463 4.386-14.604 12.086-14.605 3.635 0 6.655 2.191 6.655 7.326 0 .518-.057 1.046-.17 1.574-.138 1.763-3.525 7.507-9.09 12.77.523.373 1.193.617 2.054.617 3.772 0 6.085-1.357 7.5-2.913l2.144.973c-.797 1.68-2.134 3.54-4.358 5.496-3.487 3.063-9.927 5.705-13.749.865zm10.135-18.338c0-.781-.272-2.785-2.613-2.785-3.992 0-5.697 7.269-4.24 12.076 0 0 6.853-5.43 6.853-9.29zm-42.664 14.063c3.783 0 7.019-6.606 8.566-10.044 1.87-4.154 1.08-6.39-2.508-6.39-2.51 0-7.905 1.48-7.905 7.661 0 3.135.292 8.773 1.847 8.773z" fill="#CB272C" fill-rule="evenodd"/></svg>