<?xml version="1.0" encoding="UTF-8" standalone="no"?>
<!-- Generator: Adobe Illustrator 18.1.0, SVG Export Plug-In . SVG Version: 6.00 Build 0)  -->
<svg xmlns:dc="http://purl.org/dc/elements/1.1/" xmlns:cc="http://creativecommons.org/ns#" xmlns:rdf="http://www.w3.org/1999/02/22-rdf-syntax-ns#" xmlns:svg="http://www.w3.org/2000/svg" xmlns="http://www.w3.org/2000/svg" xmlns:sodipodi="http://sodipodi.sourceforge.net/DTD/sodipodi-0.dtd" xmlns:inkscape="http://www.inkscape.org/namespaces/inkscape" version="1.1" id="Layer_1" x="0px" y="0px" viewBox="0 0 1108.0028 361.39998" enable-background="new 0 0 1190.6 841.9" xml:space="preserve" inkscape:version="0.91 r13725" sodipodi:docname="01_mega_logo.svg" width="1108.0028" height="361.39999"><script xmlns=""/><metadata id="metadata19"><rdf:RDF><cc:Work rdf:about=""><dc:format>image/svg+xml</dc:format><dc:type rdf:resource="http://purl.org/dc/dcmitype/StillImage"/><dc:title/></cc:Work></rdf:RDF></metadata><defs id="defs17"/><sodipodi:namedview pagecolor="#ffffff" bordercolor="#666666" borderopacity="1" objecttolerance="10" gridtolerance="10" guidetolerance="10" inkscape:pageopacity="0" inkscape:pageshadow="2" inkscape:window-width="1245" inkscape:window-height="648" id="namedview15" showgrid="false" fit-margin-top="0" fit-margin-left="0" fit-margin-right="0" fit-margin-bottom="0" inkscape:zoom="0.28031832" inkscape:cx="491.77096" inkscape:cy="180.74999" inkscape:window-x="0" inkscape:window-y="0" inkscape:window-maximized="0" inkscape:current-layer="Layer_1"/><path d="M 180.7,0 C 80.9,0 0,80.9 0,180.7 c 0,99.8 80.9,180.7 180.7,180.7 99.8,0 180.7,-80.9 180.7,-180.7 C 361.4,80.9 280.5,0 180.7,0 Z m 93.8,244.6 c 0,3.1 -2.5,5.6 -5.6,5.6 l -23.6,0 c -3.1,0 -5.6,-2.5 -5.6,-5.6 l 0,-72.7 c 0,-0.6 -0.7,-0.9 -1.2,-0.5 l -50,50 c -4.3,4.3 -11.4,4.3 -15.7,0 l -50,-50 c -0.4,-0.4 -1.2,-0.1 -1.2,0.5 l 0,72.7 c 0,3.1 -2.5,5.6 -5.6,5.6 l -23.6,0 c -3.1,0 -5.6,-2.5 -5.6,-5.6 l 0,-127.8 c 0,-3.1 2.5,-5.6 5.6,-5.6 l 16.2,0 c 2.9,0 5.8,1.2 7.9,3.3 l 62.2,62.2 c 1.1,1.1 2.8,1.1 3.9,0 l 62.2,-62.2 c 2.1,-2.1 4.9,-3.3 7.9,-3.3 l 16.2,0 c 3.1,0 5.6,2.5 5.6,5.6 l 0,127.8 z" id="path3" inkscape:connector-curvature="0" style="fill:#d9272e"/><g id="g5" transform="translate(-41.1,-240.3)"><path d="m 823.1,380 0,-19.5 c 0,-3.1 -2.5,-5.6 -5.6,-5.6 l -107,0 c -3.1,0 -5.6,2.5 -5.6,5.6 l 0,127.9 c 0,3.1 2.5,5.6 5.6,5.6 l 107,0 c 3.1,0 5.6,-2.5 5.6,-5.6 l 0,-19.4 c 0,-3.1 -2.5,-5.6 -5.6,-5.6 l -76.5,0 c -0.8,0 -1.4,-0.6 -1.4,-1.4 l 0,-22.2 c 0,-0.8 0.6,-1.4 1.4,-1.4 l 76.5,0 c 3.1,0 5.6,-2.5 5.6,-5.6 l 0,-16.7 c 0,-3.1 -2.5,-5.6 -5.6,-5.6 l -76.5,0 c -0.8,0 -1.4,-0.6 -1.4,-1.4 l 0,-22.2 c 0,-0.8 0.6,-1.4 1.4,-1.4 l 76.5,0 c 3.2,0.1 5.6,-2.4 5.6,-5.5 z" id="path7" inkscape:connector-curvature="0" style="fill:#2c2b2b"/><path d="m 1120.6,494 24.3,0 c 3.1,0 5.1,-3.2 3.8,-6 l -61.5,-126.8 c -1.9,-3.8 -5.7,-6.3 -10,-6.3 l -13.9,0 c -4.3,0 -8.1,2.4 -10,6.3 L 991.8,488 c -1.3,2.8 0.7,6 3.8,6 l 24.3,0 c 3.2,0 6.1,-1.8 7.5,-4.7 l 11.8,-24.3 c 0.5,-1 1.4,-1.6 2.5,-1.6 l 57.2,0 c 1.1,0 2,0.6 2.5,1.6 l 11.8,24.3 c 1.3,2.9 4.2,4.7 7.4,4.7 z m -67.7,-57.6 16,-33 c 0.5,-1 2,-1 2.5,0 l 16,33 c 0.4,0.9 -0.2,2 -1.3,2 l -32,0 c -0.9,0 -1.6,-1.1 -1.2,-2 z" id="path9" inkscape:connector-curvature="0" style="fill:#2c2b2b"/><path d="m 647.4,358.2 -62.2,62.2 c -1.1,1.1 -2.8,1.1 -3.9,0 L 519,358.2 c -2.1,-2.1 -4.9,-3.3 -7.9,-3.3 l -16.2,0 c -3.1,0 -5.6,2.5 -5.6,5.6 l 0,127.9 c 0,3.1 2.5,5.6 5.6,5.6 l 23.6,0 c 3.1,0 5.6,-2.5 5.6,-5.6 l 0,-72.7 c 0,-0.6 0.7,-0.9 1.2,-0.5 l 50,50 c 4.3,4.3 11.4,4.3 15.7,0 l 50,-50 c 0.4,-0.4 1.2,-0.1 1.2,0.5 l 0,72.7 c 0,3.1 2.5,5.6 5.6,5.6 l 23.6,0 c 3.1,0 5.6,-2.5 5.6,-5.6 l 0,-127.9 c 0,-3.1 -2.5,-5.6 -5.6,-5.6 l -16.2,0 c -2.9,0.1 -5.7,1.2 -7.8,3.3 z" id="path11" inkscape:connector-curvature="0" style="fill:#2c2b2b"/><path d="m 978.1,412 -54.9,0 c -3.1,0 -5.6,2.5 -5.6,5.6 l 0,13.9 c 0,3.1 2.5,5.6 5.6,5.6 l 31.5,0 c 1,0 1.6,1 1.3,1.9 -6,15.9 -21.6,27.2 -39.8,26.6 -21.2,-0.7 -38.6,-17.8 -39.6,-39 -1.1,-23.5 17.7,-42.9 41,-42.9 9.5,0 18.3,3.3 25.3,8.7 2.2,1.7 5.4,1.6 7.4,-0.4 l 14.8,-14.8 c 2.3,-2.3 2.1,-6.1 -0.4,-8.2 -12.9,-10.9 -29.6,-17.4 -47.8,-17.3 -40.1,0.3 -72.7,33.5 -72.3,73.7 0.4,40 32.9,72.3 73,72.3 40.3,0 73,-32.7 73,-73 0,0 0,-0.1 0,-0.1 0,-7.1 -5.6,-12.6 -12.5,-12.6 z" id="path13" inkscape:connector-curvature="0" style="fill:#2c2b2b"/></g></svg>