<svg version="1.1" id="Layer_1" xmlns="http://www.w3.org/2000/svg" x="0" y="0" viewBox="0 0 712 220" xml:space="preserve"><style>.st0{fill:#03214f}.st1{fill:#1fbaed}</style><path class="st0" d="M257 67.3c-9 0-16.4 7.3-16.4 16.4v117.7c0 2.4 1.9 4.3 4.3 4.3h24.2c2.4 0 4.3-1.9 4.3-4.3V83.7c0-9.1-7.3-16.4-16.4-16.4M169.4 67.4c-20.1 0-34 8.3-44.3 24.2-13.7-32.4-60.4-31.7-79.8-1.9C42.3 77 31 67.6 17.5 67.6h-4.1v133.8c0 2.4 1.9 4.3 4.3 4.3h24.2c2.4 0 4.3-1.9 4.3-4.3V130c0-18 8.6-35.4 26.4-35.4 16.6 0 24.6 10.6 24.6 32.4v74.3c0 2.4 1.9 4.3 4.3 4.3h24.2c2.4 0 4.3-1.9 4.3-4.3V130c0-17.1 9.6-35.4 26.4-35.4 20.7 0 24.9 14 24.9 35v71.8c0 2.4 1.9 4.3 4.3 4.3h24.3c2.4 0 4.3-1.9 4.3-4.3v-78.8c-.1-33.4-11.9-55.2-44.8-55.2M329.5 73.5c-5.7-7.7-16.9-8.9-24.2-2.3-6.3 5.8-6.8 15.6-1.7 22.5l32.9 44.1-33.1 44.5c-5.1 6.9-4.7 16.7 1.7 22.5 7.3 6.6 18.5 5.4 24.2-2.3l46.2-62.1c1.1-1.5 1.1-3.6 0-5.1l-46-61.8z"/><path class="st1" d="M430.9 73.5c5.7-7.7 16.9-8.9 24.2-2.3 6.3 5.8 6.8 15.6 1.7 22.5l-32.9 44.1 33.1 44.5c5.1 6.9 4.7 16.7-1.7 22.5-7.3 6.6-18.5 5.4-24.2-2.3L385 140.3c-1.1-1.5-1.1-3.6 0-5.1l45.9-61.7zM519 102.2c5.7-5.7 12.4-8.6 20.1-8.6 8.4 0 15 2.6 19.7 7.8 4.4 5 6.8 12.2 7 21.6h-57.3c1.6-8.4 5.2-15.4 10.5-20.8m53.1 78c-1-1.3-2.7-1.8-4.2-1.3-17.1 5.9-56.6 9.4-59.5-30.6H584c8.1 0 14.6-6.5 14.6-14.6 0-18.1-3.3-35.6-15.6-49.1-30.1-33.3-108.2-20.7-108.2 54.8 0 78.3 73.2 76.6 106.4 61.4 2.5-1.1 3.2-4.3 1.6-6.4l-10.7-14.2zM697.5 69.4c-5.8-1.6-15.2-1.2-18.2-.6-11.7 3.5-20.3 11.5-25.5 23.6-1.8-14-13.8-24.8-28.3-24.8h-4.2v133.8c0 2.4 1.9 4.3 4.3 4.3h24.2c2.4 0 4.3-1.9 4.3-4.3v-64.8c0-26.8 15.1-45.6 40.7-36.1 2.8 1 5.8-1 5.8-4V73.6c.1-1.9-1.3-3.7-3.1-4.2"/><path class="st0" d="M239.5 26.5c0 9.7 7.9 17.5 17.6 17.5s17.5-7.9 17.5-17.5S266.7 9 257 9s-17.5 7.9-17.5 17.5"/></svg>